<svg width="19" height="19" viewBox="0 0 19 19" fill="none" xmlns="http://www.w3.org/2000/svg">
<circle cx="9.28181" cy="9.28161" r="8.72396" transform="rotate(-179.641 9.28181 9.28161)" stroke="black"/>
<path d="M6.87827 9.46426L9.90375 12.3834C9.95423 12.4321 10.0215 12.4595 10.0917 12.46C10.1619 12.4604 10.2295 12.4338 10.2806 12.3857L10.2839 12.3825C10.3087 12.3592 10.3286 12.331 10.3422 12.2998C10.3559 12.2686 10.363 12.2349 10.3632 12.2008C10.3634 12.1668 10.3567 12.133 10.3435 12.1016C10.3302 12.0702 10.3107 12.0418 10.2862 12.0182L7.43713 9.26951L10.3204 6.55785C10.3453 6.53454 10.3651 6.50641 10.3788 6.47518C10.3924 6.44395 10.3995 6.41028 10.3997 6.3762C10.4 6.34213 10.3932 6.30836 10.38 6.27697C10.3667 6.24557 10.3473 6.2172 10.3227 6.19357L10.3194 6.19028C10.269 6.14154 10.2017 6.11411 10.1315 6.11367C10.0613 6.11323 9.99369 6.13982 9.9426 6.18791L6.88075 9.06885C6.85382 9.09419 6.83232 9.12473 6.81754 9.15862C6.80277 9.19251 6.79503 9.22905 6.7948 9.26603C6.79457 9.303 6.80185 9.33963 6.81619 9.37371C6.83054 9.40778 6.85166 9.43859 6.87827 9.46426Z" fill="black"/>
</svg>
